<?xml version="1.0" standalone="no"?>
<!DOCTYPE svg PUBLIC "-//W3C//DTD SVG 20010904//EN"
 "http://www.w3.org/TR/2001/REC-SVG-20010904/DTD/svg10.dtd">
<svg version="1.0" xmlns="http://www.w3.org/2000/svg"
 width="1280.000000pt" height="1280.000000pt" viewBox="0 0 1280.000000 1280.000000"
 preserveAspectRatio="xMidYMid meet">
<metadata>
Created by potrace 1.15, written by Peter Selinger 2001-2017
</metadata>
<g transform="translate(0.000000,1280.000000) scale(0.100000,-0.100000)"
fill="#000000" stroke="none">
<path d="M6267 12549 c-231 -34 -429 -132 -592 -294 -345 -342 -400 -880 -134
-1286 68 -104 176 -216 267 -277 l62 -43 0 -434 0 -435 -1112 0 c-759 0 -1125
-4 -1152 -11 -48 -13 -119 -83 -137 -135 -20 -55 -20 -572 0 -627 18 -52 67
-106 116 -128 38 -18 98 -19 1163 -19 l1122 0 0 -207 c0 -482 -52 -2995 -75
-3643 -22 -619 -39 -989 -56 -1200 -12 -157 -72 -647 -94 -766 -52 -281 -152
-383 -455 -463 -224 -59 -338 -75 -530 -75 -158 0 -185 3 -273 27 -105 28
-257 96 -372 167 -105 64 -313 223 -465 356 -126 109 -770 747 -770 762 0 4
144 47 320 96 176 49 317 93 313 97 -11 10 -1468 669 -1480 669 -6 0 -18 -66
-27 -148 -103 -896 -164 -1447 -162 -1449 1 -1 118 88 260 198 142 110 260
199 261 197 5 -4 510 -960 597 -1128 162 -312 322 -536 537 -750 264 -262 543
-432 863 -524 154 -45 252 -57 523 -66 279 -9 433 -26 615 -66 252 -57 493
-158 645 -271 155 -115 293 -287 343 -425 9 -27 19 -48 22 -48 3 0 17 31 32
68 66 162 204 322 379 438 290 193 690 296 1199 309 239 6 300 11 415 35 472
97 895 386 1245 851 115 153 183 265 300 489 214 413 575 1090 582 1090 3 0
120 -88 258 -196 139 -107 254 -193 257 -191 4 5 -175 1588 -180 1594 -2 2
-340 -149 -750 -334 -411 -186 -743 -340 -739 -344 4 -3 142 -43 307 -88 165
-46 306 -87 314 -91 25 -14 -555 -599 -814 -821 -465 -398 -790 -538 -1163
-500 -151 15 -392 64 -507 102 -115 39 -181 77 -238 137 -100 108 -122 193
-187 722 -41 338 -59 616 -80 1225 -5 160 -12 355 -15 435 -16 442 -48 1948
-71 3322 l-7 408 1146 2 1145 3 44 30 c28 20 52 49 71 84 l27 55 0 286 0 286
-26 52 c-28 56 -68 92 -123 111 -25 8 -343 11 -1152 11 l-1119 0 0 263 c0 145
-3 344 -6 443 l-6 179 53 35 c29 19 83 65 120 102 475 474 378 1261 -198 1611
-187 114 -444 167 -656 136z m252 -544 c219 -58 371 -254 371 -478 0 -262
-226 -487 -490 -487 -173 0 -352 106 -432 256 -77 142 -77 325 0 468 35 65
133 164 198 198 104 56 243 73 353 43z"/>
</g>
</svg>
